<?xml version="1.0" encoding="UTF-8"?> <svg width="131px" height="128px" style="background-color:transparent;background:0 0;color-scheme:light" version="1.1" viewBox="-.5 -.5 131 128" xmlns="http://www.w3.org/2000/svg"><g fill="#fff" pointer-events="all" stroke="#000"><circle cx="20" cy="87" r="20"/><circle cx="50" cy="57" r="20"/><circle cx="80" cy="87" r="20"/><circle cx="110" cy="57" r="20"/></g><g stroke="#000" stroke-miterlimit="10"><path d="m20 67-8.46-33.82" fill="none" pointer-events="stroke"/><path d="m10.27 28.08 5.09 5.95-3.82-0.85-2.97 2.54z" pointer-events="all"/><path d="m50 37-34.91-26.18" fill="none" pointer-events="stroke"/><path d="m10.89 7.67 7.7 1.4-3.5 1.75-0.7 3.85z" pointer-events="all"/><path d="m80 67-17.15-34.3" fill="none" pointer-events="stroke"/><path d="m60.5 28 6.26 4.7h-3.91l-2.35 3.13z" pointer-events="all"/><path d="m110 37-44.09-17.63" fill="none" pointer-events="stroke"/><path d="m61.04 17.42 7.8-0.65-2.93 2.6 0.33 3.89z" pointer-events="all"/></g><text x="49.5" y="120.5" fill="light-dark(#000000, #ffffff)" font-family="Helvetica" font-size="12px" text-anchor="middle">\phi = 0.93</text></svg>